# AST/ASF file generated using VICON BodyLanguage
# -----------------------------------------------
:version 1.10
:name VICON
:units
  mass 1.0
  length 0.45
  angle deg
:documentation
   .ast/.asf automatically generated from VICON data using
   VICON BodyBuilder and BodyLanguage model FoxedUp or BRILLIANT.MOD
:root
   order TX TY TZ RX RY RZ
   axis XYZ
   position 0 0 0  
   orientation 0 0 0 
:bonedata
  begin
     id 1 
     name lhipjoint
     direction 0.677091 -0.635792 0.370561 
     length 2.74323 
     axis 0 0 0  XYZ
  end
  begin
     id 2 
     name lfemur
     direction 0.34202 -0.939693 0  
     length 7.44995  
     axis 0 0 20  XYZ
    dof rx ry rz
    limits (-160.0 20.0)
           (-70.0 70.0)
           (-60.0 70.0)
  end
  begin
     id 3 
     name ltibia
     direction 0.34202 -0.939693 0   
     length 7.34467   
     axis 0 0 20   XYZ
    dof rx
    limits (-10.0 170.0)
  end
  begin
     id 4 
     name lfoot
     direction 0.101953 -0.280114 0.954537   
     length 1.72105   
     axis -90 7.62852e-016 20   XYZ
    dof rx rz
    limits (-45.0 90.0)
           (-70.0 20.0)
  end
  begin
     id 5 
     name ltoes
     direction 1.53537e-011 -4.21915e-011 1   
     length 0.865872   
     axis -90 7.62852e-016 20   XYZ
    dof rx
    limits (-90.0 20.0)
  end
  begin
     id 6 
     name rhipjoint
     direction -0.695735 -0.620586 0.361699   
     length 2.81045  
     axis 0 0 0  XYZ 
  end
  begin
     id 7 
     name rfemur
     direction -0.34202 -0.939693 0   
     length 7.29387   
     axis 0 0 -20   XYZ
    dof rx ry rz
    limits (-160.0 20.0)
           (-70.0 70.0)
           (-70.0 60.0)
  end
  begin
     id 8 
     name rtibia
     direction -0.34202 -0.939693 0   
     length 7.44935   
     axis 0 0 -20   XYZ
    dof rx
    limits (-10.0 170.0)
 end
 begin
     id 9 
     name rfoot
     direction -0.104163 -0.286184 0.952496   
     length 1.77731  
     axis -90 -7.62852e-016 -20   XYZ
    dof rx rz
    limits (-45.0 90.0)
           (-20.0 70.0)
  end
  begin
     id 10 
     name rtoes
     direction -1.5355e-011 -4.21888e-011 1   
     length 0.892424   
     axis -90 -7.62852e-016 -20   XYZ
    dof rx
    limits (-90.0 20.0)
  end
  begin
     id 11 
     name lowerback
     direction 0.0100202 0.997226 -0.0737589   
     length 2.16892   
     axis 0 0 0   XYZ
    dof rx ry rz
    limits (-20.0 45.0)
           (-30.0 30.0)
           (-30.0 30.0)
  end
  begin
     id 12 
     name upperback
     direction 0.00432398 0.999988 -0.00215019   
     length 2.17326   
     axis 0 0 0   XYZ
    dof rx ry rz
    limits (-20.0 45.0)
           (-30.0 30.0)
           (-30.0 30.0)
  end
  begin
     id 13 
     name thorax
     direction -0.00195047 0.999485 0.0320434   
     length 2.18139   
     axis 0 0 0   XYZ
    dof rx ry rz
    limits (-20.0 45.0)
           (-30.0 30.0)
           (-30.0 30.0)
  end
  begin
     id 14 
     name lowerneck
     direction 0.00782762 0.986241 0.165128   
     length 1.88415   
     axis 0 0 0   XYZ
    dof rx ry rz
    limits (-20.0 45.0)
           (-30.0 30.0)
           (-30.0 30.0)
  end
  begin
     id 15 
     name upperneck
     direction 0.00988667 0.981098 -0.193258   
     length 1.9242   
     axis 0 0 0   XYZ
    dof rx ry rz
    limits (-20.0 45.0)
           (-30.0 30.0)
           (-30.0 30.0)
  end
  begin
     id 16
     name head
     direction 0.00252199 0.996513 -0.0833958  
     length 1.93887  
     axis 0 0 0   XYZ
    dof rx ry rz
    limits (-20.0 45.0)
           (-30.0 30.0)
           (-30.0 30.0)
  end
  begin
     id 17 
     name lclavicle
     direction 0.929492 0.368193 -0.0218667  
     length 3.5955  
     axis 0 0 0   XYZ
    dof ry rz
    limits (-20.0 10.0)
           (0.0 20.0)
  end
  begin
     id 18 
     name lhumerus
     direction 1 -4.48972e-011 1.41911e-027   
     length 5.2795   
     axis 180 -30 -90   XYZ
    dof rx ry rz
    limits (-60.0 90.0)
           (-90.0 90.0)
           (-90.0 90.0)
  end
  begin
     id 19
     name lradius
     direction 1 -4.48963e-011 7.05772e-027   
     length 3.53504   
     axis 180 -30 -90   XYZ
    dof rx
    limits (-10.0 170.0)
  end
  begin
     id 20
     name lwrist
     direction 1 -4.48957e-011 9.54866e-027   
     length 1.76752   
     axis -7.69462e-015 90 90   XYZ
    dof ry
    limits (-180.0 0.0)
 end
  begin
     id 21 
     name lhand
     direction 1 -4.48979e-011 1.90973e-026   
     length 0.667948   
     axis -1.21857e-014 90 90   XYZ
    dof rx rz
    limits (-90.0 90.0)
           (-45.0 45.0)
  end
  begin
     id 22 
     name lfingers
     direction 1 -4.48987e-011 3.81946e-026   
     length 0.538517   
     axis -2.43714e-014 90 90   XYZ
    dof rx
    limits (0.0 90.0)
  end
  begin
     id 23
     name lthumb
     direction 0.707107 -6.34962e-011 0.707107   
     length 0.773206   
     axis -90 45 2.85299e-015   XYZ
    dof rx rz
    limits (-45.0 45.0)
           (-45.0 45.0)
  end
  begin
     id 24 
     name rclavicle
     direction -0.898763 0.414256 -0.143584   
     length 3.5176  
     axis 0 0 0   XYZ 
    dof ry rz
    limits (-10.0 20.0)
           (-20.0 0.0)
  end
  begin
     id 25 
     name rhumerus
     direction -1 -4.48971e-011 1.129e-027  
     length 5.25035   
     axis 180 30 90   XYZ
    dof rx ry rz
    limits (-90.0 60.0)
           (-90.0 90.0)
           (-90.0 90.0)
  end
  begin
     id 26 
     name rradius
     direction -1 -4.48955e-011 6.34664e-027   
     length 3.58884   
     axis 180 30 90   XYZ
    dof rx
    limits (-10.0 170.0)
  end
  begin
     id 27 
     name rwrist
     direction -1 -4.48966e-011 9.54866e-027   
     length 1.79442   
     axis -7.69462e-015 -90 -90   XYZ
    dof ry
    limits (-180.0 0.0)
  end
  begin
     id 28
     name rhand
     direction -1 -4.48973e-011 1.90973e-026   
     length 0.779235   
     axis -1.21857e-014 -90 -90   XYZ
    dof rx rz
    limits (-90.0 90.0)
           (-45.0 45.0)
  end
  begin
     id 29
     name rfingers
     direction -1 -4.48984e-011 3.81946e-026   
     length 0.62824   
     axis -2.43714e-014 -90 -90   XYZ
    dof rx
    limits (0.0 90.0)
  end
  begin
     id 30
     name rthumb
     direction -0.707107 -6.34968e-011 0.707107   
     length 0.90203   
     axis -90 -45 -2.85299e-015   XYZ
    dof rx rz
    limits (-45.0 45.0)
           (-45.0 45.0)
  end
:hierarchy
  begin
    root lhipjoint rhipjoint lowerback
    lhipjoint lfemur
    lfemur ltibia
    ltibia lfoot
    lfoot ltoes
    rhipjoint rfemur
    rfemur rtibia
    rtibia rfoot
    rfoot rtoes
    lowerback upperback
    upperback thorax
    thorax lowerneck lclavicle rclavicle
    lowerneck upperneck
    upperneck head
    lclavicle lhumerus
    lhumerus lradius
    lradius lwrist
    lwrist lhand lthumb
    lhand lfingers
    rclavicle rhumerus
    rhumerus rradius
    rradius rwrist
    rwrist rhand rthumb
    rhand rfingers
  end

#!OML:ASF I:\Random Stuff\random\construction\7_22_03\Session 2\subj1.ASF
:FULLY-SPECIFIED
:DEGREES
1078
root 5.24631 17.8061 0.601187 345.585 93.2081 337.072
lowerback 3.13256 3.67856 1.71562
upperback 0.426906 5.17391 5.19287
thorax -1.64721 2.64714 4.14934
lowerneck -21.3488 -0.940773 5.81771
upperneck 45.7346 -6.40435 11.2817
head 24.5796 1.30465 4.26028
rclavicle 5.1684e-015 2.06736e-014
rhumerus -14.5758 14.582 -64.8238
rradius 24.8842
rwrist 10.1248
rhand -22.2894 25.0237
rfingers 7.12502
rthumb 4.12933 -4.91604
lclavicle 5.1684e-015 2.06736e-014
lhumerus 24.8429 21.8185 26.3483
lradius 95.2122
lwrist 90.1722
lhand -21.0212 53.3472
lfingers 7.12502
lthumb 5.35389 803.26
rfemur -6.56785 11.7037 19.5194
rtibia 14.2246
rfoot -11.2017 -35.8413
rtoes -0.586267
lfemur -14.7198 -10.4207 -16.6072
ltibia 18.088
lfoot -9.17544 9.61004
ltoes -32.0564
1079
root 5.25984 17.8043 0.601401 343.124 92.9543 334.646
lowerback 3.0337 3.57723 1.70923
upperback 0.342766 5.03073 5.09128
thorax -1.66083 2.5732 4.05832
lowerneck -21.3473 -0.92838 5.75601
upperneck 45.7978 -6.40619 11.3562
head 24.6642 1.30011 4.33102
rclavicle 1.74931e-014 5.40694e-014
rhumerus -16.0389 17.6018 -65.2199
rradius 28.3888
rwrist 6.08665
rhand -22.2664 23.9278
rfingers 7.12502
rthumb 4.15149 -6.01149
lclavicle 1.74931e-014 5.40694e-014
lhumerus 23.961 21.6859 25.8717
lradius 95.5589
lwrist 89.7567
lhand -20.7981 53.1378
lfingers 7.12502
lthumb 5.56928 803.045
rfemur -6.56017 11.6203 19.4815
rtibia 14.2789
rfoot -11.1546 -35.5386
rtoes -0.520496
lfemur -14.4937 -10.5358 -16.6398
ltibia 17.9607
lfoot -9.3206 10.0256
ltoes -31.8251
1080
root 5.27374 17.8028 0.602112 339.363 92.6917 330.92
lowerback 2.93695 3.46037 1.62405
upperback 0.270727 4.86374 4.99581
thorax -1.66923 2.48791 4.01883
lowerneck -21.3433 -0.899622 5.73217
upperneck 45.8549 -6.36817 11.3413
head 24.7182 1.30305 4.34532
rclavicle -3.97569e-015 2.70347e-014
rhumerus -17.5015 20.1567 -65.533
rradius 32.2596
rwrist 2.57017
rhand -22.1834 23.0623
rfingers 7.12502
rthumb 4.23169 -6.87541
lclavicle -3.97569e-015 2.70347e-014
lhumerus 22.9219 21.591 25.2628
lradius 95.9722
lwrist 89.4729
lhand -20.7649 52.8911
lfingers 7.12502
lthumb 5.60138 802.797
rfemur -6.59187 11.4898 19.4186
rtibia 14.3863
rfoot -10.8701 -35.189
rtoes -1.55326
lfemur -14.2451 -10.5637 -16.7154
ltibia 17.7939
lfoot -9.42113 10.4014
ltoes -31.7014
1081
root 5.2889 17.8018 0.603973 334.262 92.4351 325.827
lowerback 2.75709 3.35787 1.40349
upperback 0.248495 4.70928 4.97057
thorax -1.59744 2.41111 4.13411
lowerneck -21.3826 -0.90022 5.63128
upperneck 45.8827 -6.33427 11.2717
head 24.7535 1.2797 4.33425
rclavicle -1.59028e-015 -3.18055e-015
rhumerus -18.7585 21.6318 -65.5006
rradius 36.4045
rwrist 0.0554174
rhand -21.6672 22.2983
rfingers 7.12502
rthumb 4.73008 -7.62894
lclavicle -1.59028e-015 -3.18055e-015
lhumerus 21.7723 21.5996 24.7564
lradius 96.4972
lwrist 89.2006
lhand -20.8099 52.6176
lfingers 7.12502
lthumb 5.55793 802.525
rfemur -6.66682 11.3942 19.3344
rtibia 14.54
rfoot -10.7705 -34.8328
rtoes -2.84093
lfemur -13.9977 -10.5316 -16.8162
ltibia 17.5921
lfoot -9.35509 10.7316
ltoes -32.0203
1082
root 5.30372 17.8004 0.606296 328.019 92.212 319.566
lowerback 2.54011 3.26127 1.1885
upperback 0.238497 4.56023 4.92104
thorax -1.48909 2.33608 4.22313
lowerneck -21.4386 -0.875471 5.63612
upperneck 45.8884 -6.26925 11.0952
head 24.7447 1.27264 4.23776
rclavicle -3.22031e-014 1.59028e-015
rhumerus -19.9204 22.4045 -65.3316
rradius 40.9196
rwrist -2.26268
rhand -20.5285 21.1667
rfingers 7.12502
rthumb 5.82957 -8.73307
lclavicle -3.22031e-014 1.59028e-015
lhumerus 20.6426 21.6759 24.3179
lradius 97.0542
lwrist 88.9339
lhand -20.6861 52.3207
lfingers 7.12502
lthumb 5.67746 802.225
rfemur -6.75914 11.277 19.232
rtibia 14.661
rfoot -10.6714 -34.4733
rtoes -3.54421
lfemur -13.7902 -10.4788 -16.9236
ltibia 17.4059
lfoot -9.23429 11.0286
ltoes -32.5232
1083
root 5.3174 17.7996 0.607972 320.772 91.9841 312.326
lowerback 2.41983 3.22519 1.12037
upperback 0.230434 4.49829 4.80993
thorax -1.42185 2.30248 4.15572
lowerneck -21.6017 -0.885252 5.62725
upperneck 45.8706 -6.29344 10.976
head 24.7825 1.24048 4.15945
rclavicle -1.55052e-014 -2.06736e-014
rhumerus -21.194 22.8529 -65.1762
rradius 45.8648
rwrist -5.17345
rhand -18.7203 19.7468
rfingers 7.12502
rthumb 7.57511 -10.0975
lclavicle -1.55052e-014 -2.06736e-014
lhumerus 19.7499 21.6786 24.0378
lradius 97.5763
lwrist 88.55
lhand -20.3851 51.9071
lfingers 7.12502
lthumb 5.96806 801.803
rfemur -6.81463 11.0515 19.1655
rtibia 14.7341
rfoot -10.4889 -33.9905
rtoes -4.05566
lfemur -13.5598 -10.5632 -16.9877
ltibia 17.2491
lfoot -9.25953 11.4864
ltoes -32.5193
1084
root 5.3312 17.7997 0.609224 312.329 91.7256 303.897
lowerback 2.32311 3.14275 1.04102
upperback 0.214328 4.37619 4.70654
thorax -1.37375 2.23913 4.10328
lowerneck -21.7693 -0.873327 5.64059
upperneck 45.9103 -6.32659 10.9404
head 24.902 1.22232 4.1397
rclavicle -5.68524e-014 -2.54444e-014
rhumerus -22.4159 23.3743 -65.0929
rradius 51.1112
rwrist -8.58605
rhand -16.3449 18.6044
rfingers 7.12502
rthumb 9.86746 -11.1444
lclavicle -5.68524e-014 -2.54444e-014
lhumerus 18.6511 21.6632 23.5877
lradius 98.2126
lwrist 87.9451
lhand -20.083 51.5897
lfingers 7.12502
lthumb 6.25973 801.477
rfemur -6.86646 10.8165 19.1666
rtibia 14.7991
rfoot -10.372 -33.4498
rtoes -4.71497
lfemur -13.3133 -10.8426 -16.9635
ltibia 17.1034
lfoot -9.36783 12.1621
ltoes -32.0856
1085
root 5.3452 17.8001 0.611487 300.442 91.5144 291.979
lowerback 2.16899 2.93135 0.794794
upperback 0.134235 4.07819 4.60932
thorax -1.36004 2.08926 4.15868
lowerneck -21.7318 -0.726152 5.95266
upperneck 46.0515 -6.1507 10.6803
head 24.9606 1.30754 3.9808
rclavicle -1.64991e-014 -6.52014e-014
rhumerus -23.5144 24.1044 -65.1534
rradius 56.5241
rwrist -11.4959
rhand -13.611 17.6153
rfingers 7.12502
rthumb 12.5042 -11.9905
lclavicle -1.64991e-014 -6.52014e-014
lhumerus 17.0694 21.6833 22.7254
lradius 98.9721
lwrist 87.2916
lhand -19.7912 51.3192
lfingers 7.12502
lthumb 6.54135 801.198
rfemur -6.94916 10.7278 19.1537
rtibia 14.8418
rfoot -10.2977 -33.0169
rtoes -5.18984
lfemur -13.125 -11.0572 -16.934
ltibia 16.9673
lfoot -9.46816 12.7611
ltoes -31.7777
1086
root 5.35898 17.8003 0.61476 284.198 91.4247 275.72
lowerback 2.03162 2.81494 0.568092
upperback 0.0325677 3.91 4.50776
thorax -1.38396 2.00483 4.19139
lowerneck -21.5393 -0.656965 6.16545
upperneck 46.0883 -5.99818 10.3603
head 24.8292 1.35391 3.76975
rclavicle -7.55382e-015 5.56597e-014
rhumerus -24.7053 24.5242 -65.0595
rradius 62.0215
rwrist -13.278
rhand -10.8378 16.8213
rfingers 7.12502
rthumb 15.1767 -12.6022
lclavicle -7.55382e-015 5.56597e-014
lhumerus 15.7867 21.5725 22.2397
lradius 99.6899
lwrist 86.7233
lhand -19.5067 50.8392
lfingers 7.12502
lthumb 6.81602 800.71
rfemur -6.99828 10.7313 19.0992
rtibia 14.8735
rfoot -10.2961 -32.63
rtoes -5.5187
lfemur -12.9151 -11.1736 -16.9583
ltibia 16.8318
lfoot -9.58296 13.2556
ltoes -31.7111
1087
root 5.37308 17.8015 0.618845 264.514 91.4713 255.98
lowerback 1.75225 2.82338 0.339662
upperback -0.00755582 3.90604 4.47061
thorax -1.28086 2.00293 4.29513
lowerneck -21.3149 -0.690693 6.12421
upperneck 45.9566 -5.91348 10.0897
head 24.529 1.3241 3.59011
rclavicle 8.15017e-015 -1.11319e-014
rhumerus -25.7143 24.8024 -64.6
rradius 67.3639
rwrist -14.3532
rhand -8.37241 16.722
rfingers 7.12502
rthumb 17.5505 -12.5058
lclavicle 8.15017e-015 -1.11319e-014
lhumerus 14.8318 21.391 22.2622
lradius 100.457
lwrist 86.2175
lhand -19.3147 50.3969
lfingers 7.12502
lthumb 7.00136 800.261
rfemur -7.1133 10.8984 19.0354
rtibia 14.9336
rfoot -10.2109 -32.3525
rtoes -6.25655
lfemur -12.7335 -11.2303 -16.9845
ltibia 16.6967
lfoot -9.66091 13.7812
ltoes -31.5153
1088
root 5.38522 17.8023 0.62256 249.652 91.6382 241.045
lowerback 1.46437 2.82068 0.123154
upperback -0.0407697 3.88871 4.43627
thorax -1.16426 1.99404 4.39635
lowerneck -21.1064 -0.703981 6.13646
upperneck 45.7684 -5.80136 9.758
head 24.1728 1.30107 3.36394
rclavicle 3.97569e-015 -1.59028e-014
rhumerus -26.449 25.1742 -64.064
rradius 72.4358
rwrist -15.0438
rhand -6.33091 17.0582
rfingers 7.12502
rthumb 19.5142 -11.9825
lclavicle 3.97569e-015 -1.59028e-014
lhumerus 13.8932 21.2166 22.373
lradius 101.379
lwrist 85.8892
lhand -19.2413 50.2959
lfingers 7.12502
lthumb 7.07224 800.158
rfemur -7.26571 10.9046 18.976
rtibia 14.9978
rfoot -10.0999 -32.004
rtoes -7.28989
lfemur -12.613 -11.2815 -17.0015
ltibia 16.5867
lfoot -9.70722 14.2785
ltoes -31.2399
